<?xml version="1.0" encoding="utf-8"?><svg xml:space="preserve" viewBox="0 0 100 100" y="0" x="0" xmlns="http://www.w3.org/2000/svg" id="圖層_1" version="1.1" width="200px" height="200px" xmlns:xlink="http://www.w3.org/1999/xlink" style="width:100%;height:100%;background-size:initial;background-repeat-y:initial;background-repeat-x:initial;background-position-y:initial;background-position-x:initial;background-origin:initial;background-color:initial;background-clip:initial;background-attachment:initial;animation-play-state:paused" ><g class="ldl-scale" style="transform-origin:50% 50%;transform:rotate(0deg) scale(0.28, 0.28);animation-play-state:paused" ><g style="animation-play-state:paused" ><path fill="#666" d="M51.728 49.029L23.671 92.125a1.252 1.252 0 0 1-2.165-1.25L44.8 45.029a4.006 4.006 0 1 1 6.928 4z" style="fill:rgb(0, 31, 45);animation-play-state:paused" ></path></g>
<path stroke-miterlimit="10" stroke-linejoin="round" stroke-linecap="round" stroke-width="2.3" stroke="#333" fill="#c33737" d="M70.311 67.194c-4.748 8.224-19.91 8.359-33.865.302s-21.418-21.255-16.67-29.479 19.054-6.878 33.009 1.179S75.059 58.97 70.311 67.194z" style="stroke:rgb(0, 143, 212);fill:rgb(0, 143, 212);animation-play-state:paused" ></path>
<path stroke-miterlimit="10" stroke-linejoin="round" stroke-linecap="round" stroke-width="2.3" stroke="#333" fill="#c33737" d="M59.436 59.708c-3.736 6.47-31.474-9.544-27.738-16.015l20.601-29.282L74.744 27.37 59.436 59.708z" style="stroke:rgb(0, 143, 212);fill:rgb(0, 143, 212);animation-play-state:paused" ></path>
<ellipse stroke-miterlimit="10" stroke-linejoin="round" stroke-linecap="round" stroke-width="2.3" stroke="#333" fill="#c33737" ry="21.026" rx="9.336" cy="21.763" cx="62.851" transform="rotate(-60 62.852 21.765)" style="stroke:rgb(0, 143, 212);fill:rgb(0, 143, 212);animation-play-state:paused" ></ellipse>
<path stroke-miterlimit="10" stroke-linejoin="round" stroke-linecap="round" stroke-width="2.3" stroke="#000" opacity=".2" d="M36.447 67.497c13.955 8.057 29.117 7.921 33.865-.302 3.132-5.425.576-12.368-5.53-18.779l6.469-13.666c4.7.737 8.401-.034 9.809-2.473 2.578-4.466-3.484-12.792-13.541-18.598" style="stroke:rgb(0, 31, 45);fill:rgb(0, 31, 45);animation-play-state:paused" ></path>
<metadata xmlns:d="https://loading.io/stock/" style="animation-play-state:paused" ><d:name style="animation-play-state:paused" >pin</d:name>
<d:tags style="animation-play-state:paused" >pin,needle,pushpin,tack,lock,hold,keep,fix,jab,poke,thumbtack</d:tags>
<d:license style="animation-play-state:paused" >by</d:license>
<d:slug style="animation-play-state:paused" >i8w266</d:slug></metadata></g><!-- generated by https://loading.io/ --></svg>